<?xml version="1.0" standalone="no"?>
<!DOCTYPE svg PUBLIC "-//W3C//DTD SVG 20010904//EN"
 "http://www.w3.org/TR/2001/REC-SVG-20010904/DTD/svg10.dtd">
<svg version="1.0" xmlns="http://www.w3.org/2000/svg"
 width="228.000000pt" height="228.000000pt" viewBox="0 0 228.000000 228.000000"
 preserveAspectRatio="xMidYMid meet">
<metadata>
Created by potrace 1.11, written by Peter Selinger 2001-2013
</metadata>
<g transform="translate(0.000000,228.000000) scale(0.100000,-0.100000)"
fill="#000000" stroke="none">
<path d="M1073 1983 c-61 -126 -199 -407 -306 -625 -108 -219 -194 -398 -192
-398 2 0 99 115 216 255 116 140 214 255 218 255 3 0 42 -300 85 -667 43 -368
82 -686 86 -708 4 -22 8 445 9 1038 1 592 0 1077 -2 1077 -2 0 -53 -102 -114
-227z"/>
<path d="M502 1845 c-12 -25 -22 -49 -22 -54 0 -8 169 -47 173 -40 1 2 12 26
25 52 16 35 19 49 10 52 -18 6 -147 35 -157 35 -4 0 -17 -20 -29 -45z"/>
<path d="M712 1795 c-12 -25 -22 -49 -22 -53 0 -5 28 -14 63 -21 34 -7 72 -15
84 -18 18 -4 26 4 48 46 19 38 22 53 13 56 -19 7 -141 35 -154 35 -5 0 -20
-20 -32 -45z"/>
<path d="M1268 1664 c-11 -25 -16 -50 -11 -54 6 -6 139 -40 157 -40 7 0 59
101 54 104 -6 4 -153 36 -166 36 -7 0 -22 -21 -34 -46z"/>
<path d="M1475 1611 c-23 -45 -23 -50 -7 -55 20 -6 151 -36 157 -36 6 0 57
101 53 105 -5 4 -149 35 -164 35 -8 0 -25 -22 -39 -49z"/>
<path d="M813 1011 c-11 -30 -11 -30 30 -33 34 -2 44 -8 60 -35 l19 -33 -457
0 -456 0 3 -22 c3 -22 8 -23 111 -26 59 -1 107 -7 107 -12 0 -5 -13 -7 -29 -4
-61 13 -143 -37 -154 -93 -3 -14 0 -39 5 -55 9 -24 13 -27 36 -21 39 11 116 7
141 -6 25 -14 28 -46 5 -55 -42 -16 -94 8 -94 42 0 17 -11 15 -39 -7 -30 -23
-23 -44 19 -62 17 -8 42 -31 55 -51 21 -32 31 -38 60 -38 40 0 44 9 15 35 -29
26 -25 38 20 57 69 29 65 99 -10 140 -28 16 -49 19 -108 15 l-74 -4 26 25 c21
21 34 26 75 25 29 0 68 -9 91 -21 l40 -19 0 53 0 54 57 0 c48 0 54 -2 40 -13
-16 -11 -16 -14 3 -52 11 -21 20 -47 20 -57 0 -31 -23 -32 -46 -2 -21 25 -25
27 -38 14 -12 -13 -8 -25 36 -92 46 -72 53 -78 84 -78 19 0 34 3 34 6 0 4 -13
22 -30 41 -16 18 -30 38 -30 43 0 13 37 22 91 24 l48 1 3 -55 3 -55 38 -3 37
-3 0 140 0 141 68 -1 c55 0 63 -2 45 -11 l-22 -11 19 -38 c22 -43 26 -89 8
-89 -7 0 -22 12 -34 27 -18 23 -24 25 -37 15 -14 -12 -9 -23 35 -93 47 -73 53
-79 84 -79 19 0 34 3 34 6 0 3 -13 23 -30 44 -36 45 -36 46 -10 53 38 10 52
94 25 147 l-16 30 35 0 35 0 3 -137 3 -138 38 -3 37 -3 0 140 c0 134 1 141 20
141 15 0 20 7 20 25 0 20 -5 25 -25 25 -19 0 -28 9 -43 43 -26 58 -58 87 -97
87 -25 0 -33 -6 -42 -29z m-233 -195 c0 -36 -5 -48 -26 -65 -36 -29 -63 -28
-57 2 3 12 -2 41 -10 65 l-15 42 54 0 54 0 0 -44z"/>
<path d="M1282 998 c-29 -29 -2 -72 40 -66 42 6 32 78 -11 78 -9 0 -22 -5 -29
-12z"/>
<path d="M1240 885 l0 -25 122 0 123 0 -38 -25 c-33 -23 -77 -88 -77 -115 0
-6 26 -10 62 -10 65 0 141 -28 152 -55 4 -12 -9 -15 -78 -15 -73 0 -85 -3
-104 -23 -12 -13 -22 -26 -22 -30 0 -4 42 -7 94 -7 l93 0 42 45 c47 51 51 73
19 103 -32 29 -71 42 -130 42 -50 0 -50 0 -35 23 18 27 52 26 110 -2 l41 -21
28 27 c34 32 34 37 6 51 -17 8 59 11 295 11 l317 1 0 25 0 25 -510 0 -510 0 0
-25z"/>
<path d="M1280 705 l0 -125 35 0 35 0 0 125 0 125 -35 0 -35 0 0 -125z"/>
<path d="M1700 705 l0 -125 35 0 35 0 0 84 c0 78 1 84 23 90 53 14 87 -5 87
-50 0 -31 7 -30 42 3 33 32 35 51 7 87 -27 34 -74 35 -123 1 l-36 -24 0 29 c0
28 -3 30 -35 30 l-35 0 0 -125z"/>
<path d="M1980 725 c0 -92 3 -108 20 -125 17 -17 33 -20 125 -20 l105 0 0 103
c0 143 -4 147 -145 147 l-105 0 0 -105z m180 -20 l0 -56 -57 3 -57 3 -1 52 0
53 58 0 57 0 0 -55z"/>
</g>
</svg>
